<?xml version="1.0" encoding="iso-8859-1"?>
<!-- Generator: Adobe Illustrator 16.0.0, SVG Export Plug-In . SVG Version: 6.00 Build 0)  -->
<!DOCTYPE svg PUBLIC "-//W3C//DTD SVG 1.1//EN" "http://www.w3.org/Graphics/SVG/1.1/DTD/svg11.dtd">
<svg version="1.1" id="&#x5716;&#x5C64;_1" xmlns="http://www.w3.org/2000/svg" xmlns:xlink="http://www.w3.org/1999/xlink" x="0px"
	 y="0px" width="650.451px" height="111.734px" viewBox="0 0 650.451 111.734" style="enable-background:new 0 0 650.451 111.734;"
	 xml:space="preserve">
<g>
	<defs>
		<circle id="SVGID_1_" cx="55.867" cy="55.867" r="55.867"/>
	</defs>
	<clipPath id="SVGID_2_">
		<use xlink:href="#SVGID_1_"  style="overflow:visible;"/>
	</clipPath>
	<g style="clip-path:url(#SVGID_2_);">
		
			<linearGradient id="SVGID_3_" gradientUnits="userSpaceOnUse" x1="-3.1421" y1="139.1812" x2="-3.1421" y2="27.4468" gradientTransform="matrix(1 0 0 -1 59.0098 139.1807)">
			<stop  offset="0" style="stop-color:#A2E9FF"/>
			<stop  offset="0.5521" style="stop-color:#DDFDFF"/>
		</linearGradient>
		<path style="fill:url(#SVGID_3_);" d="M0,55.867C0,25.012,25.012,0,55.867,0s55.867,25.012,55.867,55.867
			s-25.012,55.867-55.867,55.867S0,86.722,0,55.867z"/>
		
			<linearGradient id="SVGID_4_" gradientUnits="userSpaceOnUse" x1="-9.5659" y1="84.6909" x2="-9.5659" y2="37.9272" gradientTransform="matrix(1 0 0 -1 59.0098 139.1807)">
			<stop  offset="0" style="stop-color:#AAF3FA"/>
			<stop  offset="1" style="stop-color:#D5FAFD"/>
		</linearGradient>
		<path style="fill:url(#SVGID_4_);" d="M120.704,64.52c0,0-15.846-10.03-27.813-10.03c-15.833,0-26.417,13.68-39.222,13.68
			c-14.924,0-16.801-3.953-25.171-3.953c-11.828,0-27.44,7.412-35.673,4.738c-6.644-2.16-14.642-6.52-14.642-6.52V99.05
			l142.521,2.203V64.52z"/>
		
			<linearGradient id="SVGID_5_" gradientUnits="userSpaceOnUse" x1="-5.104" y1="77.0254" x2="-5.104" y2="35.2686" gradientTransform="matrix(1 0 0 -1 59.0098 139.1807)">
			<stop  offset="0" style="stop-color:#7EDEE7"/>
			<stop  offset="1" style="stop-color:#B5F1F5"/>
		</linearGradient>
		<path style="fill:url(#SVGID_5_);" d="M-19.469,88.984c0,0,0.723-23.035,17.103-26.638c14.32-2.142,25.361,14.482,38.167,14.482
			c14.924,0,21.959-9.646,36.447-9.646c10.571,0,20.888,8.388,35.28,5.48c31.965-6.46,15.524-7.567,15.524-7.567v36.617
			l-142.521,2.199V88.984z"/>
		
			<linearGradient id="SVGID_6_" gradientUnits="userSpaceOnUse" x1="-6" y1="59.7246" x2="-6" y2="27.4422" gradientTransform="matrix(1 0 0 -1 59.0098 139.1807)">
			<stop  offset="0" style="stop-color:#4297A8"/>
			<stop  offset="1" style="stop-color:#77C8D3"/>
		</linearGradient>
		<path style="fill:url(#SVGID_6_);" d="M-4.082,90.457c0,0,6.875-9.242,12.271-10.172c5.396-0.93,8.383,8.076,8.383,8.076
			s2.526-0.393,3.898,0c1.374,0.395,2.459,2.096,2.459,2.096s1.749-5.428,9.005-5.428c7.257,0,10.946,7.332,10.946,7.332
			s2.416-1.904,4.931-1.904c2.517,0,5.363,1.904,5.363,1.904s1.777-7.332,9.276-7.332s10.696,6.223,10.696,6.223
			s3.028-1.914,5.974-1.914c2.943,0,6.454,1.914,6.454,1.914s0.988-6.037,5.374-9.596c4.384-3.559,13.929-1.371,13.929-1.371
			l5.224,2.75v28.699H-4.082V90.457z"/>
		<ellipse style="fill:#FEFFCA;" cx="69.168" cy="26.603" rx="9.311" ry="9.311"/>
	</g>
</g>
<path style="fill:#08A6BB;" d="M198.219,40.899H180.87l-8.389,48.489h-14.035l8.429-48.489h-17.063l1.964-11.089h48.366
	L198.219,40.899z M224.652,57.594c-1.445-0.218-2.837-0.354-4.173-0.409c-4.038-0.109-7.12,1.282-9.248,4.174l-4.992,28.03h-13.462
	l7.692-44.274l12.562-0.041l-1.023,5.811c2.892-4.474,6.301-6.71,10.229-6.71c1.119,0,2.51,0.191,4.174,0.573L224.652,57.594z
	 M247.689,89.388c-0.382-1.064-0.573-2.4-0.573-4.012c-3.027,3.328-6.642,4.938-10.843,4.83c-3.847-0.055-7.038-1.338-9.575-3.848
	c-2.537-2.51-3.724-5.551-3.56-9.125c0.136-4.801,2.141-8.483,6.015-11.048c3.874-2.591,9.166-3.887,15.877-3.887l4.501,0.081
	l0.49-2.495l0.164-2.169c-0.109-2.482-1.351-3.765-3.724-3.847c-2.946-0.054-4.76,1.569-5.442,4.869l-13.503,0.041
	c0.137-2.973,1.105-5.551,2.905-7.733c1.801-2.209,4.242-3.901,7.324-5.074c3.11-1.2,6.411-1.759,9.902-1.678
	c3.355,0.082,6.288,0.791,8.798,2.128c2.537,1.309,4.433,3.15,5.688,5.524c1.255,2.346,1.732,5.061,1.432,8.143l-3.314,20.828
	l-0.204,2.537c-0.109,2.018,0.15,3.736,0.777,5.156l-0.041,0.777H247.689z M239.997,80.466c2.755,0.109,5.169-1.104,7.242-3.641
	l1.351-7.119l-3.479-0.041c-2.154,0.055-4.01,0.695-5.564,1.923c-1.555,1.2-2.469,2.851-2.741,4.951
	c-0.137,1.118,0.067,2.046,0.613,2.783C237.992,80.031,238.852,80.414,239.997,80.466z M285.621,72.815l11.089-27.702h14.525
	l-20.95,44.274h-13.707l-7.079-44.274h13.83L285.621,72.815z M329.444,90.207c-3.955-0.027-7.488-0.955-10.598-2.783
	c-3.083-1.855-5.415-4.42-6.997-7.693c-1.582-3.3-2.21-6.928-1.883-10.883l0.123-1.146c0.736-7.284,3.26-13.04,7.57-17.268
	c4.337-4.255,9.643-6.301,15.917-6.138c3.792,0.055,7.038,1.023,9.738,2.905c2.701,1.855,4.679,4.433,5.934,7.733
	c1.255,3.274,1.664,6.957,1.228,11.048l-0.777,5.605h-26.352c0.055,2.318,0.709,4.201,1.964,5.646
	c1.255,1.447,3.082,2.21,5.483,2.292c3.9,0.107,7.406-1.392,10.516-4.501l5.646,7.488c-1.664,2.373-3.996,4.242-6.997,5.605
	c-2.973,1.338-6.232,2.033-9.779,2.088H329.444z M332.718,54.894c-1.909-0.055-3.573,0.545-4.992,1.8
	c-1.391,1.254-2.605,3.355-3.642,6.301h13.462l0.246-1.187c0.163-0.955,0.19-1.855,0.081-2.701
	C337.41,56.38,335.691,54.975,332.718,54.894z M366.312,89.388h-13.503l10.884-62.851h13.504L366.312,89.388z M447.575,40.899
	h-17.35l-8.388,48.489h-14.035l8.43-48.489h-17.063l1.964-11.089h48.368L447.575,40.899z M462.838,89.388
	c-0.385-1.064-0.573-2.4-0.573-4.012c-3.027,3.328-6.642,4.938-10.843,4.83c-3.847-0.055-7.038-1.338-9.575-3.848
	s-3.727-5.551-3.56-9.125c0.136-4.801,2.142-8.483,6.015-11.048c3.874-2.591,9.166-3.887,15.877-3.887l4.501,0.081l0.49-2.495
	l0.164-2.169c-0.109-2.482-1.351-3.765-3.721-3.847c-2.949-0.054-4.763,1.569-5.445,4.869l-13.503,0.041
	c0.137-2.973,1.105-5.551,2.902-7.733c1.804-2.209,4.245-3.901,7.327-5.074c3.11-1.2,6.411-1.759,9.902-1.678
	c3.355,0.082,6.285,0.791,8.798,2.128c2.537,1.309,4.433,3.15,5.688,5.524c1.255,2.346,1.732,5.061,1.435,8.143l-3.317,20.828
	l-0.204,2.537c-0.109,2.018,0.15,3.736,0.777,5.156l-0.038,0.777H462.838z M455.146,80.466c2.758,0.109,5.169-1.104,7.242-3.641
	l1.348-7.119l-3.476-0.041c-2.154,0.055-4.01,0.695-5.564,1.923c-1.555,1.2-2.472,2.851-2.739,4.951
	c-0.139,1.118,0.066,2.046,0.611,2.783C453.141,80.031,454,80.414,455.146,80.466z M495.613,89.388H482.11l7.692-44.274h13.503
	L495.613,89.388z M490.989,33.943c-0.051-1.992,0.642-3.656,2.088-4.992c1.473-1.337,3.246-2.005,5.318-2.005
	c2.101,0,3.847,0.6,5.238,1.8c1.418,1.2,2.154,2.769,2.209,4.706c0.055,2.019-0.641,3.696-2.084,5.033
	c-1.448,1.31-3.222,1.964-5.322,1.964c-2.046,0-3.791-0.586-5.237-1.76C491.778,37.489,491.047,35.907,490.989,33.943z
	 M544.263,71.179l8.882-26.065h13.176l-17.8,44.274h-11.334l-2.537-26.107l-11.664,26.107h-11.414l-2.455-44.274h12.645
	l-0.412,26.351l11.337-26.351h9.367L544.263,71.179z M588.539,89.388c-0.385-1.064-0.573-2.4-0.573-4.012
	c-3.027,3.328-6.643,4.938-10.843,4.83c-3.847-0.055-7.038-1.338-9.575-3.848s-3.727-5.551-3.56-9.125
	c0.136-4.801,2.142-8.483,6.015-11.048c3.874-2.591,9.166-3.887,15.877-3.887l4.5,0.081l0.491-2.495l0.164-2.169
	c-0.109-2.482-1.351-3.765-3.721-3.847c-2.949-0.054-4.763,1.569-5.445,4.869l-13.503,0.041c0.137-2.973,1.104-5.551,2.902-7.733
	c1.804-2.209,4.245-3.901,7.327-5.074c3.11-1.2,6.411-1.759,9.902-1.678c3.355,0.082,6.285,0.791,8.798,2.128
	c2.537,1.309,4.433,3.15,5.688,5.524c1.255,2.346,1.732,5.061,1.435,8.143l-3.317,20.828l-0.204,2.537
	c-0.109,2.018,0.149,3.736,0.777,5.156l-0.038,0.777H588.539z M580.847,80.466c2.758,0.109,5.169-1.104,7.242-3.641l1.348-7.119
	l-3.476-0.041c-2.155,0.055-4.01,0.695-5.564,1.923c-1.555,1.2-2.472,2.851-2.739,4.951c-0.139,1.118,0.065,2.046,0.611,2.783
	C578.842,80.031,579.7,80.414,580.847,80.466z M627.084,45.073l-0.941,5.319c3.547-4.201,7.815-6.247,12.808-6.138
	c4.092,0.082,7.134,1.61,9.125,4.583c2.019,2.946,2.755,7.174,2.21,12.685l-4.665,27.866h-13.503l4.705-27.948
	c0.106-0.955,0.137-1.828,0.085-2.619c-0.193-2.591-1.724-3.887-4.586-3.887c-2.376-0.054-4.542,0.996-6.506,3.151l-5.526,31.303
	h-13.46l7.693-44.274L627.084,45.073z"/>
</svg>
